<?xml version="1.0" encoding="UTF-8"?>
<svg version="1.1" xmlns="http://www.w3.org/2000/svg" width="512" height="512">
<path d="M0 0 C0.6707959 0.22236328 1.3415918 0.44472656 2.03271484 0.67382812 C35.64043768 11.96346177 65.6710564 31.38144264 91 56 C91.51788086 56.49741699 92.03576172 56.99483398 92.56933594 57.50732422 C99.59774933 64.27276976 105.98601337 71.30124407 112 79 C112.78890625 79.97195312 113.5778125 80.94390625 114.390625 81.9453125 C130.94973702 102.72231155 143.45772014 126.91004893 152 152 C152.27682617 152.80727539 152.55365234 153.61455078 152.83886719 154.44628906 C169.77087316 204.75211621 168.95714546 259.85180145 152 310 C151.66645508 311.00619385 151.66645508 311.00619385 151.32617188 312.03271484 C139.65824893 346.76655411 119.40907595 376.90504455 94 403 C93.10410156 403.93585938 92.20820313 404.87171875 91.28515625 405.8359375 C85.55600804 411.71894909 79.45041312 416.92683725 73 422 C72.02546875 422.79148437 71.0509375 423.58296875 70.046875 424.3984375 C49.26619168 440.94988628 25.08893747 453.45806523 0 462 C-0.80727539 462.27682617 -1.61455078 462.55365234 -2.44628906 462.83886719 C-65.12187906 483.93430531 -132.80917072 476.82394684 -191.6328125 447.7890625 C-213.8891081 436.44605429 -233.16821476 421.36309481 -251 404 C-251.93585938 403.10410156 -252.87171875 402.20820313 -253.8359375 401.28515625 C-259.71894909 395.55600804 -264.92683725 389.45041312 -270 383 C-270.79148437 382.02546875 -271.58296875 381.0509375 -272.3984375 380.046875 C-311.49077176 330.96564776 -328.11811612 266.02963466 -321.75390625 204.06640625 C-319.68931491 186.29814403 -315.72580578 168.93320646 -310 152 C-309.77763672 151.3292041 -309.55527344 150.6584082 -309.32617188 149.96728516 C-298.02954148 116.33873392 -278.60014031 86.36565521 -254 61 C-253.48614746 60.46036621 -252.97229492 59.92073242 -252.44287109 59.36474609 C-245.06631404 51.62514717 -237.35007537 44.7341272 -228.78271484 38.33837891 C-227.01244753 37.00934503 -225.26536106 35.65388349 -223.51953125 34.29296875 C-213.30633923 26.43969634 -202.34995883 20.06587722 -191 14 C-190.23768066 13.59007813 -189.47536133 13.18015625 -188.68994141 12.7578125 C-131.39448916 -17.53545833 -60.85056751 -20.57605167 0 0 Z M-109 73 C-109.95519531 73.32943604 -109.95519531 73.32943604 -110.9296875 73.66552734 C-136.79201815 82.69306519 -155.74821246 101.30968949 -167.94921875 125.5 C-178.13469645 146.88997062 -179.44802404 173.55627123 -172 196 C-162.67963805 222.11965885 -144.5706391 242.65660384 -119.47265625 254.69140625 C-94.19369334 265.45587391 -67.64670596 266.15783777 -42 256.125 C-32.30489387 252.00096232 -24.11806755 246.66629635 -16 240 C-15.35546875 239.50242187 -14.7109375 239.00484375 -14.046875 238.4921875 C4.05174258 223.85143588 14.90569649 200.71058922 18 178 C20.11576667 150.84065517 13.70981891 125.57792944 -3.5 104.125 C-4.98200624 102.40103356 -6.48095395 100.69142007 -8 99 C-8.62390625 98.29359375 -9.2478125 97.5871875 -9.890625 96.859375 C-24.1027201 81.69184493 -46.94519258 70.10807884 -67.8840332 68.82299805 C-88.79427084 68.35593337 -88.79427084 68.35593337 -109 73 Z M-213 314 C-213.68449219 314.61101562 -214.36898437 315.22203125 -215.07421875 315.8515625 C-221.38888318 321.68239213 -225.64874405 328.66406752 -230 336 C-230.47308594 336.78761719 -230.94617188 337.57523437 -231.43359375 338.38671875 C-235.88208711 346.51068859 -238.58693997 355.72210567 -241.22216797 364.57250977 C-242 367 -242 367 -242.98486328 369.06616211 C-243.92890744 371.30819636 -244.30283793 372.57384542 -244 375 C-241.3672204 378.98977004 -237.99642109 382.07966201 -234.5 385.3125 C-233.51651549 386.25115551 -232.53434231 387.19118683 -231.5534668 388.13256836 C-224.40820982 394.93103924 -217.08616223 401.35076337 -209 407 C-207.97060303 407.72340576 -207.97060303 407.72340576 -206.92041016 408.46142578 C-159.72472146 441.3516046 -102.30744287 457.00623832 -44.95556641 447.49511719 C-7.97114794 440.73245232 26.46079537 426.54401659 56 403 C57.50046875 401.80697266 57.50046875 401.80697266 59.03125 400.58984375 C68.67635513 392.74511817 77.32047218 383.88294203 86 375 C77.22765777 342.87235432 64.63396915 315.54688447 34.85986328 298.03857422 C21.94826099 290.8285511 6.40755682 285.91018664 -8.44683838 285.85282898 C-9.72485321 285.84567368 -11.00286804 285.83851837 -12.3196106 285.83114624 C-13.72381567 285.82830638 -15.12802101 285.8255946 -16.53222656 285.82299805 C-18.02112992 285.81672653 -19.51003174 285.81007913 -20.99893188 285.80308533 C-25.87948532 285.782109 -30.7600388 285.77168293 -35.640625 285.76171875 C-37.32854986 285.75766757 -39.01647457 285.75355054 -40.70439911 285.74936867 C-48.64404061 285.73032418 -56.5836729 285.71609652 -64.52333283 285.7077567 C-73.64576445 285.69801326 -82.76795156 285.67176672 -91.89029717 285.63125581 C-98.96665136 285.60092561 -106.04293618 285.58627159 -113.11935401 285.58297569 C-117.33303946 285.5806427 -121.54646356 285.57191527 -125.76007843 285.54651451 C-159.45173723 285.35402023 -187.9072685 289.65433756 -213 314 Z " fill="#000000" transform="translate(335,25)"/>
</svg>
